<svg width="179" height="138" viewBox="0 0 179 138" fill="none" xmlns="http://www.w3.org/2000/svg">
<path d="M57.8883 97.1557L49.7818 83.6031L55.1782 80.3753C58.453 78.4164 61.4157 79.0214 63.1035 81.8431C64.8283 84.7267 63.9685 87.4503 60.9408 89.2613L56.945 91.6513L59.6184 96.1208L57.8883 97.1557ZM56.1565 90.3331L60.0081 88.0293C62.0884 86.785 62.7082 85.016 61.4762 82.9563C60.2689 80.9379 58.3389 80.6101 56.0527 81.9776L52.4483 84.1336L56.1565 90.3331ZM76.8223 78.3355L77.2781 79.0976L69.3072 83.8654C70.7038 85.9664 72.8351 86.5373 74.8329 85.3423C76.5425 84.3198 77.199 82.7525 76.5424 81.3275L78.0666 80.4158C79.2818 82.6812 78.3277 85.1536 75.6501 86.7552C72.5812 88.5909 69.3966 87.7551 67.5116 84.6038C65.5651 81.3495 66.2775 78.0989 69.3258 76.2756C72.2299 74.5385 75.0112 75.3078 76.8223 78.3355ZM75.0394 78.8147L74.9655 78.6911C73.8937 76.8992 72.1408 76.4934 70.2047 77.6515C68.3922 78.7356 67.8053 80.5129 68.6544 82.6338L75.0394 78.8147ZM82.6035 82.3723L76.5175 72.1976L78.1652 71.212L79.8857 74.182L79.9063 74.1696C79.3206 72.115 79.5702 70.1479 81.7534 68.842C84.0397 67.4745 86.1665 68.2718 87.6326 70.7228C88.0515 71.423 88.4332 72.2015 88.6138 72.5969L87.1102 73.4962C86.9666 73.1626 86.6998 72.6231 86.3179 71.9846C85.1968 70.1103 83.9175 69.5611 82.2491 70.559C80.1689 71.8033 80.0378 74.3427 81.5532 76.8761L84.2512 81.3867L82.6035 82.3723ZM94.443 75.2905L89.2194 66.5576L87.5099 67.5801L86.6475 66.1383L88.357 65.1158L87.7533 64.1066C86.4228 61.8821 87.0183 59.792 89.1398 58.5231C89.9224 58.0549 90.6472 57.8172 91.0918 57.719L91.9666 59.1814C91.5219 59.2795 90.9331 59.464 90.2328 59.8828C88.9352 60.659 88.6249 61.8234 89.401 63.121L90.0047 64.1302L93.7945 61.8634L94.6569 63.3051L90.8671 65.572L96.0907 74.3049L94.443 75.2905ZM106.933 60.325L107.389 61.0871L99.4177 65.8548C100.814 67.9559 102.946 68.5268 104.943 67.3318C106.653 66.3092 107.31 64.7419 106.653 63.3169L108.177 62.4052C109.392 64.6707 108.438 67.1431 105.761 68.7447C102.692 70.5803 99.5071 69.7445 97.6221 66.5933C95.6756 63.339 96.388 60.0883 99.4363 58.265C102.34 56.5279 105.122 57.2973 106.933 60.325ZM105.15 60.8041L105.076 60.6805C104.004 58.8886 102.251 58.4829 100.315 59.6409C98.5027 60.7251 97.9158 62.5024 98.765 64.6233L105.15 60.8041ZM117.261 61.8655C114.295 63.6395 111.181 62.7339 109.259 59.5208C107.337 56.3077 108.054 53.1106 111.102 51.2873C113.821 49.661 116.557 50.2616 118.109 52.8568L116.585 53.7684C115.554 52.0918 113.781 51.6984 112.009 52.7579C109.97 53.9776 109.527 56.2284 110.907 58.5352C112.287 60.842 114.438 61.5406 116.416 60.3579C118.269 59.2491 118.836 57.4841 117.858 55.8035L119.382 54.8918C120.91 57.4458 120.083 60.1776 117.261 61.8655ZM128.185 55.2199C125.713 56.6983 123.726 55.7612 122.383 53.5162L119.39 48.5112L117.701 49.5214L116.838 48.0797L118.198 47.2666C118.527 47.0694 118.552 46.8307 118.273 46.2706L117.395 44.6148L118.795 43.777L120.175 46.0839L123.862 43.8786L124.724 45.3204L121.037 47.5256L123.97 52.4276C124.894 53.9724 125.942 54.6035 127.466 53.6919C128.167 53.273 128.752 52.7552 128.929 52.5373L129.767 53.9378C129.532 54.2462 129.009 54.7271 128.185 55.2199Z" fill="#82BCC5"/>
<rect x="1.37152" y="90.1769" width="173" height="54" rx="27" transform="rotate(-30.8857 1.37152 90.1769)" stroke="#82BCC5" stroke-width="2"/>
</svg>
