<svg width="233" height="56" viewBox="0 0 233 56" fill="none" xmlns="http://www.w3.org/2000/svg">
<path d="M53.168 36.24C48.704 36.24 45.2 33.096 45.2 28.032C45.2 23.064 48.704 19.968 53.168 19.968C57.632 19.968 61.136 23.064 61.136 28.032C61.136 33.096 57.632 36.24 53.168 36.24ZM53.168 34.416C56.408 34.416 59.12 31.968 59.12 28.032C59.12 24.168 56.408 21.792 53.168 21.792C49.928 21.792 47.216 24.168 47.216 28.032C47.216 31.968 49.928 34.416 53.168 34.416ZM68.8801 36.192C65.7841 36.192 63.8881 34.344 63.8881 31.464V24.144H65.8081V31.128C65.8081 33.168 67.1521 34.464 69.4081 34.464C72.1681 34.464 73.9441 32.616 73.9441 29.496V24.144H75.8641V36H73.9441C73.9921 35.208 74.0401 33.72 74.0401 32.52H74.0161C73.5121 34.752 71.8321 36.192 68.8801 36.192ZM83.9231 36.096C81.0431 36.096 79.8191 34.272 79.8191 31.656V25.824H77.8511V24.144H79.4351C79.8191 24.144 79.9631 23.952 80.0111 23.328L80.1071 21.456H81.7391V24.144H86.0351V25.824H81.7391V31.536C81.7391 33.336 82.3151 34.416 84.0911 34.416C84.9071 34.416 85.6751 34.272 85.9391 34.176V35.808C85.5791 35.952 84.8831 36.096 83.9231 36.096ZM93.0883 36.192C89.1043 36.192 87.8563 34.32 87.8563 32.04H89.6323C89.6323 33.624 90.5923 34.56 93.0643 34.56C95.5123 34.56 96.6883 33.816 96.6883 32.544C96.6883 32.064 96.5443 31.608 95.9443 31.32C95.3923 31.056 94.1443 30.912 92.6803 30.768C90.7363 30.6 89.5603 30.36 88.8403 29.832C88.1923 29.352 87.8563 28.488 87.8563 27.624C87.8563 25.392 89.8963 23.952 93.0643 23.952C96.6163 23.952 98.1043 25.512 98.1043 28.176H96.3283C96.3043 26.4 95.2483 25.584 93.1363 25.584C91.0963 25.584 89.7763 26.328 89.7763 27.504C89.7763 27.984 89.8483 28.56 90.5443 28.848C91.1203 29.088 92.2963 29.232 93.8563 29.4C95.7043 29.592 96.6163 29.76 97.4323 30.216C98.2243 30.672 98.6083 31.584 98.6083 32.472C98.6083 34.8 96.6883 36.192 93.0883 36.192ZM106.189 36.096C103.309 36.096 102.085 34.272 102.085 31.656V25.824H100.117V24.144H101.701C102.085 24.144 102.229 23.952 102.277 23.328L102.373 21.456H104.005V24.144H108.301V25.824H104.005V31.536C104.005 33.336 104.581 34.416 106.357 34.416C107.173 34.416 107.941 34.272 108.205 34.176V35.808C107.845 35.952 107.149 36.096 106.189 36.096ZM114.49 36.192C111.802 36.192 110.098 34.824 110.098 32.592C110.098 30.912 111.274 29.472 114.442 29.472H119.266V28.608C119.266 26.568 118.066 25.584 115.642 25.584C113.458 25.584 112.258 26.4 112.258 28.008C112.258 28.08 112.258 28.248 112.282 28.44H110.506C110.482 28.272 110.458 27.936 110.458 27.72C110.458 25.368 112.474 23.952 115.69 23.952C119.17 23.952 121.186 25.68 121.186 28.776V36H119.266C119.29 35.448 119.338 34.344 119.362 33.192H119.338C118.93 35.016 117.442 36.192 114.49 36.192ZM114.874 34.56C117.562 34.56 119.266 33.192 119.266 31.032V30.864H114.61C112.666 30.864 111.898 31.44 111.898 32.592C111.898 33.792 113.002 34.56 114.874 34.56ZM124.43 36V24.144H126.35L126.302 27.336H126.326C126.974 25.272 128.63 23.952 131.462 23.952C134.582 23.952 136.43 25.752 136.43 28.584V36H134.51V28.992C134.51 26.976 133.358 25.68 130.814 25.68C128.102 25.68 126.35 27.336 126.35 30.168V36H124.43ZM144.824 36.192C141.392 36.192 139.184 33.696 139.184 30C139.184 26.472 141.392 23.952 144.992 23.952C147.464 23.952 148.976 24.96 149.408 26.52H149.432V19.368H151.352V36H149.432C149.504 34.944 149.528 33.888 149.552 32.832H149.504C149.048 34.872 147.464 36.192 144.824 36.192ZM145.136 34.464C147.752 34.464 149.432 32.808 149.432 30.216V29.616C149.432 27.216 147.776 25.68 145.16 25.68C142.688 25.68 141.104 27.528 141.104 30C141.104 32.64 142.688 34.464 145.136 34.464ZM154.876 22.632V20.208H156.94V22.632H154.876ZM154.948 36V24.144H156.868V36H154.948ZM160.36 36V24.144H162.28L162.232 27.336H162.256C162.904 25.272 164.56 23.952 167.392 23.952C170.512 23.952 172.36 25.752 172.36 28.584V36H170.44V28.992C170.44 26.976 169.288 25.68 166.744 25.68C164.032 25.68 162.28 27.336 162.28 30.168V36H160.36ZM183.562 34.368C185.962 34.368 187.33 35.424 187.33 37.224C187.33 39.576 185.098 41.088 181.354 41.088C177.442 41.088 175.114 39.816 175.114 37.56C175.114 36.384 176.05 35.4 177.538 35.4V35.376C176.938 34.92 176.578 34.224 176.578 33.408C176.578 32.52 176.962 31.824 177.418 31.56V31.512C176.314 30.792 175.69 29.616 175.69 28.176C175.69 25.608 177.658 23.952 180.73 23.952C182.026 23.952 183.13 24.24 183.97 24.768V24.744C183.706 24.408 183.514 23.952 183.514 23.424C183.514 22.464 184.354 21.84 185.698 21.84C186.202 21.84 186.562 21.912 186.778 21.984V23.52C186.61 23.448 186.322 23.376 185.938 23.376C185.146 23.376 184.714 23.736 184.714 24.432C184.714 24.792 184.834 25.248 185.026 25.728C185.53 26.4 185.794 27.216 185.794 28.176C185.794 30.744 183.826 32.4 180.73 32.4C179.914 32.4 179.194 32.28 178.546 32.064C178.354 32.256 178.21 32.616 178.21 33.072C178.21 33.864 178.714 34.368 179.722 34.368H183.562ZM180.73 25.584C178.786 25.584 177.562 26.592 177.562 28.176C177.562 29.76 178.786 30.768 180.73 30.768C182.674 30.768 183.922 29.76 183.922 28.176C183.922 26.592 182.674 25.584 180.73 25.584ZM181.33 39.456C184.378 39.456 185.41 38.544 185.41 37.416C185.41 36.48 184.714 36 183.274 36H179.746C178.09 36 177.034 36.432 177.034 37.512C177.034 38.832 178.714 39.456 181.33 39.456Z" fill="#EA765C"/>
<rect x="1" y="1" width="231" height="54" rx="27" stroke="#EA765C" stroke-width="2"/>
</svg>
