<svg width="175" height="56" viewBox="0 0 175 56" fill="none" xmlns="http://www.w3.org/2000/svg">
<path d="M45.92 36V20.208H52.208C56.024 20.208 58.256 22.248 58.256 25.536C58.256 28.896 56.12 30.792 52.592 30.792H47.936V36H45.92ZM47.936 29.256H52.424C54.848 29.256 56.288 28.056 56.288 25.656C56.288 23.304 54.8 22.032 52.136 22.032H47.936V29.256ZM71.8299 29.568V30.456H62.5419C62.6619 32.976 64.1979 34.56 66.5259 34.56C68.5179 34.56 69.8859 33.552 70.0539 31.992H71.8299C71.7099 34.56 69.6219 36.192 66.5019 36.192C62.9259 36.192 60.6219 33.84 60.6219 30.168C60.6219 26.376 62.9019 23.952 66.4539 23.952C69.8379 23.952 71.8299 26.04 71.8299 29.568ZM70.0539 29.064V28.92C70.0539 26.832 68.7579 25.584 66.5019 25.584C64.3899 25.584 62.9739 26.808 62.6139 29.064H70.0539ZM74.7191 36V24.144H76.6391L76.5911 27.576H76.6151C77.1671 25.512 78.3911 23.952 80.9351 23.952C83.5991 23.952 85.0151 25.728 85.0151 28.584C85.0151 29.4 84.9431 30.264 84.8951 30.696H83.1431C83.1911 30.336 83.2391 29.736 83.2391 28.992C83.2391 26.808 82.4231 25.68 80.4791 25.68C78.0551 25.68 76.6391 27.792 76.6391 30.744V36H74.7191ZM88.5149 36V25.824H86.5229V24.144H88.5149V22.968C88.5149 20.376 90.0989 18.888 92.5709 18.888C93.4829 18.888 94.2269 19.056 94.6589 19.2V20.904C94.2269 20.76 93.6269 20.616 92.8109 20.616C91.2989 20.616 90.4349 21.456 90.4349 22.968V24.144H94.8509V25.824H90.4349V36H88.5149ZM106.916 29.568V30.456H97.6278C97.7478 32.976 99.2838 34.56 101.612 34.56C103.604 34.56 104.972 33.552 105.14 31.992H106.916C106.796 34.56 104.708 36.192 101.588 36.192C98.0118 36.192 95.7078 33.84 95.7078 30.168C95.7078 26.376 97.9878 23.952 101.54 23.952C104.924 23.952 106.916 26.04 106.916 29.568ZM105.14 29.064V28.92C105.14 26.832 103.844 25.584 101.588 25.584C99.4758 25.584 98.0598 26.808 97.6998 29.064H105.14ZM114.989 36.192C111.533 36.192 109.325 33.816 109.325 30.072C109.325 26.328 111.581 23.952 115.133 23.952C118.301 23.952 120.341 25.872 120.341 28.896H118.565C118.541 26.928 117.221 25.68 115.157 25.68C112.781 25.68 111.245 27.384 111.245 30.072C111.245 32.76 112.733 34.464 115.037 34.464C117.197 34.464 118.589 33.24 118.613 31.296H120.389C120.389 34.272 118.277 36.192 114.989 36.192ZM127.775 36.096C124.895 36.096 123.671 34.272 123.671 31.656V25.824H121.703V24.144H123.287C123.671 24.144 123.815 23.952 123.863 23.328L123.959 21.456H125.591V24.144H129.887V25.824H125.591V31.536C125.591 33.336 126.167 34.416 127.943 34.416C128.759 34.416 129.527 34.272 129.791 34.176V35.808C129.431 35.952 128.735 36.096 127.775 36.096Z" fill="#6C83DA"/>
<rect x="1" y="1" width="173" height="54" rx="27" stroke="#6C83DA" stroke-width="2"/>
</svg>
