<svg width="174" height="146" viewBox="0 0 174 146" fill="none" xmlns="http://www.w3.org/2000/svg">
<path d="M63.0793 99.9289C58.9546 102.867 56.2783 101.385 54.6214 99.0583L56.1461 97.9722C57.4689 99.8293 59.3401 100.471 62.0768 98.5215C65.0286 96.419 65.0282 94.6809 64.151 93.4493C63.5662 92.6283 62.8941 92.4293 62.0345 92.629C61.1219 92.8371 59.5444 93.7249 58.3188 94.3622C56.8781 95.1526 55.2479 95.8423 54.2378 95.9135C53.1747 95.993 52.0343 95.5088 51.171 94.2968C49.542 92.0096 50.5115 88.9029 53.5806 86.7169C57.1775 84.155 59.788 84.8002 61.9043 87.7716L60.3796 88.8576C58.7784 86.6095 56.8311 86.5232 54.6221 88.0966C52.5305 89.5864 51.7131 91.5829 52.7156 92.9904C53.3004 93.8114 53.9613 94.0773 54.7036 93.9612C55.5519 93.8284 57.2633 92.963 58.4889 92.3258C59.9044 91.5827 61.4064 90.837 62.5533 90.6684C63.7197 90.4858 64.888 91.0091 65.7234 92.182C67.1158 94.1369 67.2822 96.9354 63.0793 99.9289ZM74.7713 91.5423C72.2496 93.3384 69.6331 92.9331 67.9623 90.5874L63.7157 84.6251L65.2795 83.5112L69.3313 89.1998C70.5148 90.8614 72.3613 91.1373 74.1989 89.8285C76.4469 88.2273 76.8214 85.6917 75.0114 83.1505L71.9064 78.7912L73.4703 77.6773L80.3485 87.3342L78.7846 88.448C78.3642 87.7751 77.5401 86.5353 76.8439 85.5578L76.8244 85.5718C77.7087 87.6822 77.1757 89.8297 74.7713 91.5423ZM87.4149 82.5367C84.6 84.5417 81.4231 83.8874 79.2511 80.8379C77.079 77.7883 77.5381 74.5442 80.4313 72.4836C83.0116 70.6457 85.7871 71.026 87.5415 73.4891L86.0949 74.5195C84.9336 72.9304 83.1345 72.6797 81.4533 73.8771C79.518 75.2555 79.2555 77.5346 80.8149 79.724C82.3744 81.9134 84.5749 82.4381 86.4516 81.1014C88.2109 79.8483 88.6346 78.0438 87.5264 76.4464L88.9729 75.4161C90.6994 77.8401 90.0931 80.6292 87.4149 82.5367ZM99.16 66.0387L99.6752 66.762L92.11 72.1504C93.6697 74.1334 95.8397 74.5325 97.7359 73.1819C99.3584 72.0262 99.8879 70.4116 99.1197 69.0435L100.566 68.0131C101.958 70.1744 101.204 72.715 98.6632 74.5251C95.7505 76.5997 92.5093 76.0206 90.379 73.0297C88.1791 69.9411 88.63 66.644 91.5231 64.5833C94.2794 62.6201 97.1133 63.1651 99.16 66.0387ZM97.4211 66.6586L97.3375 66.5413C96.1262 64.8406 94.3465 64.5759 92.509 65.8847C90.7887 67.11 90.3455 68.9284 91.3611 70.9748L97.4211 66.6586ZM109.227 67.0011C105.982 69.3124 103.879 68.5116 102.556 66.6545L104.003 65.6242C104.922 66.9144 106.247 67.1198 108.26 65.6857C110.254 64.2655 110.781 62.9773 110.043 61.9412C109.764 61.5502 109.382 61.2624 108.727 61.3759C108.124 61.4811 107.024 62.0878 105.748 62.8199C104.067 63.8108 102.97 64.2976 102.077 64.2852C101.271 64.2702 100.496 63.7614 99.9945 63.0576C98.6997 61.2397 99.5259 58.8833 102.106 57.0454C104.999 54.9847 107.116 55.3921 108.662 57.5619L107.215 58.5923C106.165 57.1596 104.832 57.1076 103.112 58.3329C101.45 59.5164 100.807 60.8882 101.489 61.846C101.767 62.237 102.16 62.6644 102.894 62.4952C103.502 62.3565 104.544 61.7915 105.912 61.0234C107.529 60.1076 108.369 59.7154 109.298 59.6134C110.208 59.5253 111.05 60.0454 111.565 60.7687C112.915 62.6649 112.159 64.9126 109.227 67.0011ZM119.936 59.3731C116.691 61.6844 114.589 60.8836 113.266 59.0265L114.713 57.9962C115.632 59.2864 116.957 59.4918 118.97 58.0577C120.964 56.6375 121.49 55.3493 120.752 54.3132C120.474 53.9223 120.092 53.6344 119.436 53.7479C118.833 53.8531 117.733 54.4598 116.457 55.1919C114.776 56.1828 113.679 56.6696 112.787 56.6572C111.98 56.6422 111.205 56.1334 110.704 55.4297C109.409 53.6117 110.235 51.2553 112.816 49.4174C115.709 47.3567 117.826 47.7641 119.371 49.9339L117.925 50.9643C116.875 49.5316 115.542 49.4796 113.821 50.7049C112.16 51.8884 111.516 53.2602 112.198 54.218C112.477 54.609 112.87 55.0364 113.604 54.8672C114.212 54.7285 115.253 54.1635 116.622 53.3954C118.238 52.4796 119.078 52.0874 120.008 51.9854C120.917 51.8973 121.759 52.4174 122.274 53.1407C123.625 55.0369 122.869 57.2846 119.936 59.3731Z" fill="#9C75BD"/>
<rect x="1.39466" y="100.6" width="171" height="54" rx="27" transform="rotate(-35.4607 1.39466 100.6)" stroke="#9C75BD" stroke-width="2"/>
</svg>
