<svg width="240" height="105" viewBox="0 0 240 105" fill="none" xmlns="http://www.w3.org/2000/svg">
<path d="M59.6452 73.5588C55.2827 74.5056 51.1916 72.1763 50.1175 67.2275C49.0638 62.3726 51.8314 58.6038 56.1938 57.657C60.5563 56.7102 64.6372 58.9925 65.6909 63.8475C66.765 68.7963 64.0076 72.6119 59.6452 73.5588ZM59.2583 71.7763C62.4246 71.089 64.5556 68.1215 63.7208 64.2751C62.9012 60.499 59.747 58.7523 56.5807 59.4395C53.4144 60.1267 51.2681 63.0239 52.0876 66.7999C52.9225 70.6464 56.092 72.4635 59.2583 71.7763ZM74.9896 70.1793C71.9641 70.8359 69.7192 69.4321 69.1084 66.6177L67.5558 59.4642L69.4321 59.057L70.9134 65.8821C71.3461 67.8757 72.9344 68.8571 75.1391 68.3786C77.8363 67.7932 79.1799 65.6106 78.5182 62.5615L77.383 57.3313L79.2593 56.9241L81.774 68.5103L79.8977 68.9176C79.7766 68.1334 79.5079 66.6691 79.2534 65.4964L79.2299 65.5015C79.2108 67.7896 77.8744 69.5531 74.9896 70.1793ZM89.6699 66.8948C86.8554 67.5057 85.2724 65.9828 84.7176 63.4263L83.4806 57.727L81.5574 58.1444L81.201 56.5026L82.749 56.1667C83.1243 56.0852 83.2243 55.867 83.1388 55.2471L82.8356 53.3973L84.4304 53.0511L85.0006 55.678L89.1988 54.7668L89.5552 56.4086L85.3569 57.3198L86.5684 62.9018C86.9502 64.6608 87.7422 65.5941 89.4778 65.2174C90.2752 65.0443 90.9952 64.7407 91.2328 64.5909L91.579 66.1858C91.2577 66.4029 90.6081 66.6912 89.6699 66.8948ZM98.6469 65.0447C94.7536 65.8897 93.1369 64.325 92.6533 62.0969L94.3889 61.7202C94.7249 63.2681 95.8616 63.9792 98.2773 63.4549C100.67 62.9357 101.661 61.9592 101.391 60.7161C101.289 60.247 101.052 59.832 100.405 59.6778C99.8092 59.5369 98.559 59.6608 97.0978 59.8306C95.1624 60.0788 93.9622 60.0937 93.1466 59.7304C92.4116 59.3988 91.8999 58.6257 91.7167 57.7813C91.2433 55.6001 92.9314 53.7602 96.0274 53.0883C99.4985 52.3349 101.284 53.5438 101.849 56.1472L100.113 56.5239C99.7129 54.7934 98.5078 54.2199 96.4439 54.6679C94.4503 55.1005 93.3181 56.1076 93.5676 57.2568C93.6694 57.7259 93.8619 58.2735 94.6031 58.4074C95.2169 58.5197 96.3967 58.411 97.9569 58.2443C99.8035 58.04 100.73 58.0107 101.625 58.2833C102.495 58.5609 103.064 59.3707 103.252 60.2385C103.746 62.5135 102.165 64.2811 98.6469 65.0447ZM111.429 62.1722C108.614 62.7831 107.031 61.2602 106.477 58.7037L105.24 53.0044L103.316 53.4218L102.96 51.7801L104.508 51.4441C104.883 51.3626 104.983 51.1445 104.898 50.5245L104.595 48.6747L106.189 48.3286L106.76 50.9554L110.958 50.0442L111.314 51.686L107.116 52.5972L108.327 58.1792C108.709 59.9383 109.501 60.8715 111.237 60.4948C112.034 60.3217 112.754 60.0181 112.992 59.8683L113.338 61.4632C113.017 61.6803 112.367 61.9686 111.429 62.1722ZM119.562 60.5052C116.935 61.0754 114.98 60.0999 114.507 57.9187C114.15 56.2769 114.994 54.6202 118.09 53.9483L122.804 52.9251L122.621 52.0808C122.188 50.0872 120.807 49.3801 118.438 49.8942C116.304 50.3575 115.304 51.4094 115.645 52.9808C115.66 53.0512 115.696 53.2154 115.76 53.3979L114.025 53.7746C113.966 53.6155 113.871 53.2923 113.825 53.0812C113.326 50.7827 114.996 48.9713 118.139 48.2892C121.54 47.5511 123.876 48.8122 124.533 51.8377L126.065 58.8974L124.189 59.3046C124.095 58.7601 123.908 57.671 123.687 56.5401L123.664 56.5452C123.652 58.4143 122.447 59.8791 119.562 60.5052ZM119.591 58.8289C122.218 58.2588 123.593 56.5605 123.135 54.4496L123.099 54.2855L118.549 55.273C116.65 55.6853 116.021 56.4111 116.266 57.5369C116.52 58.7096 117.762 59.226 119.591 58.8289ZM129.235 58.2094L126.72 46.6231L128.596 46.2159L129.227 49.3455L129.25 49.3404C129.446 47.1859 130.784 45.5447 133.551 44.944C136.6 44.2823 138.788 45.6493 139.389 48.4169L140.962 55.6642L139.086 56.0714L137.599 49.2229C137.172 47.2527 135.771 46.2306 133.285 46.7701C130.634 47.3454 129.274 49.3353 129.874 52.1028L131.111 57.8022L129.235 58.2094ZM149.206 54.0713C145.852 54.7993 143.165 52.8284 142.381 49.2165C141.633 45.7687 143.256 42.8378 146.774 42.0742C149.19 41.5499 150.881 42.2142 151.634 43.6471L151.658 43.642L150.141 36.6528L152.017 36.2455L155.545 52.4991L153.668 52.9063C153.515 51.8591 153.314 50.822 153.114 49.785L153.067 49.7951C153.054 51.8854 151.786 53.5114 149.206 54.0713ZM149.144 52.3165C151.701 51.7616 152.991 49.787 152.442 47.2539L152.314 46.6676C151.805 44.3222 149.861 43.1724 147.305 43.7272C144.889 44.2516 143.733 46.3935 144.257 48.8092C144.817 51.3892 146.752 52.8357 149.144 52.3165ZM156.153 38.6878L155.639 36.3189L157.656 35.8812L158.17 38.25L156.153 38.6878ZM159.059 51.7364L156.544 40.1501L158.421 39.7429L160.935 51.3291L159.059 51.7364ZM164.347 50.5886L161.832 39.0024L163.709 38.5951L164.339 41.7247L164.362 41.7196C164.558 39.5651 165.896 37.9239 168.664 37.3232C171.713 36.6615 173.9 38.0286 174.501 40.7961L176.074 48.0434L174.198 48.4506L172.711 41.6021C172.284 39.632 170.883 38.6098 168.397 39.1494C165.747 39.7246 164.386 41.7145 164.986 44.4821L166.223 50.1814L164.347 50.5886ZM186.675 44.0725C189.021 43.5634 190.582 44.3053 190.963 46.0643C191.462 48.3628 189.602 50.3138 185.943 51.1079C182.12 51.9377 179.575 51.1884 179.097 48.9837C178.847 47.8345 179.553 46.6743 181.007 46.3587L181.002 46.3353C180.319 46.0169 179.82 45.4131 179.647 44.6156C179.458 43.7479 179.686 42.9862 180.076 42.6315L180.065 42.5846C178.834 42.1152 177.975 41.0983 177.669 39.691C177.124 37.1815 178.696 35.1457 181.699 34.4941C182.965 34.2193 184.105 34.2666 185.038 34.6044L185.033 34.5809C184.704 34.3086 184.419 33.9037 184.307 33.3877C184.104 32.4495 184.792 31.6615 186.106 31.3765C186.598 31.2696 186.965 31.2636 187.192 31.2881L187.517 32.7892C187.338 32.7545 187.041 32.7452 186.666 32.8266C185.892 32.9946 185.546 33.438 185.694 34.1182C185.77 34.47 185.984 34.8902 186.274 35.3185C186.909 35.8684 187.34 36.6098 187.543 37.548C188.088 40.0575 186.516 42.0933 183.49 42.7499C182.693 42.923 181.964 42.9585 181.285 42.8848C181.138 43.1132 181.074 43.4955 181.17 43.9411C181.338 44.7151 181.938 45.1008 182.923 44.887L186.675 44.0725ZM182.045 36.089C180.145 36.5013 179.163 37.746 179.499 39.294C179.835 40.8419 181.244 41.5674 183.144 41.1551C185.044 40.7427 186.05 39.493 185.714 37.945C185.378 36.3971 183.944 35.6767 182.045 36.089ZM185.573 49.5181C188.552 48.8716 189.367 47.7615 189.128 46.6592C188.929 45.7445 188.147 45.423 186.74 45.7284L183.292 46.4767C181.674 46.828 180.734 47.4741 180.963 48.5296C181.243 49.8195 183.017 50.073 185.573 49.5181Z" fill="#DC5668"/>
<rect x="1.18935" y="50.1851" width="231" height="54" rx="27" transform="rotate(-12.2456 1.18935 50.1851)" stroke="#DC5668" stroke-width="2"/>
</svg>
