<svg width="173" height="56" viewBox="0 0 173 56" fill="none" xmlns="http://www.w3.org/2000/svg">
<path d="M51.632 36.24C46.568 36.24 45.248 33.48 45.248 30.624H47.12C47.12 32.904 48.272 34.512 51.632 34.512C55.256 34.512 56.264 33.096 56.264 31.584C56.264 30.576 55.832 30.024 55.016 29.688C54.152 29.328 52.352 29.136 50.984 28.944C49.352 28.752 47.624 28.368 46.76 27.84C45.848 27.288 45.2 26.232 45.2 24.744C45.2 21.936 47.792 19.968 51.56 19.968C55.976 19.968 57.728 22.008 57.728 25.656H55.856C55.856 22.896 54.32 21.696 51.608 21.696C49.04 21.696 47.216 22.848 47.216 24.576C47.216 25.584 47.6 26.184 48.272 26.52C49.04 26.904 50.936 27.192 52.304 27.384C53.888 27.6 55.544 27.864 56.576 28.392C57.632 28.92 58.28 30.024 58.28 31.464C58.28 33.864 56.792 36.24 51.632 36.24ZM66.0208 36.192C62.9248 36.192 61.0288 34.344 61.0288 31.464V24.144H62.9488V31.128C62.9488 33.168 64.2928 34.464 66.5488 34.464C69.3088 34.464 71.0848 32.616 71.0848 29.496V24.144H73.0048V36H71.0848C71.1328 35.208 71.1808 33.72 71.1808 32.52H71.1568C70.6528 34.752 68.9728 36.192 66.0208 36.192ZM81.5437 36.192C78.0877 36.192 75.8797 33.816 75.8797 30.072C75.8797 26.328 78.1357 23.952 81.6877 23.952C84.8557 23.952 86.8957 25.872 86.8957 28.896H85.1197C85.0957 26.928 83.7757 25.68 81.7117 25.68C79.3357 25.68 77.7997 27.384 77.7997 30.072C77.7997 32.76 79.2877 34.464 81.5917 34.464C83.7517 34.464 85.1437 33.24 85.1677 31.296H86.9437C86.9437 34.272 84.8317 36.192 81.5437 36.192ZM100.681 29.568V30.456H91.3934C91.5134 32.976 93.0494 34.56 95.3774 34.56C97.3694 34.56 98.7374 33.552 98.9054 31.992H100.681C100.561 34.56 98.4734 36.192 95.3534 36.192C91.7774 36.192 89.4734 33.84 89.4734 30.168C89.4734 26.376 91.7534 23.952 95.3054 23.952C98.6894 23.952 100.681 26.04 100.681 29.568ZM98.9054 29.064V28.92C98.9054 26.832 97.6094 25.584 95.3534 25.584C93.2414 25.584 91.8254 26.808 91.4654 29.064H98.9054ZM108.323 36.192C104.339 36.192 103.091 34.32 103.091 32.04H104.867C104.867 33.624 105.827 34.56 108.299 34.56C110.747 34.56 111.923 33.816 111.923 32.544C111.923 32.064 111.779 31.608 111.179 31.32C110.627 31.056 109.379 30.912 107.915 30.768C105.971 30.6 104.795 30.36 104.075 29.832C103.427 29.352 103.091 28.488 103.091 27.624C103.091 25.392 105.131 23.952 108.299 23.952C111.851 23.952 113.339 25.512 113.339 28.176H111.563C111.539 26.4 110.483 25.584 108.371 25.584C106.331 25.584 105.011 26.328 105.011 27.504C105.011 27.984 105.083 28.56 105.779 28.848C106.355 29.088 107.531 29.232 109.091 29.4C110.939 29.592 111.851 29.76 112.667 30.216C113.459 30.672 113.843 31.584 113.843 32.472C113.843 34.8 111.923 36.192 108.323 36.192ZM121.471 36.192C117.487 36.192 116.239 34.32 116.239 32.04H118.015C118.015 33.624 118.975 34.56 121.447 34.56C123.895 34.56 125.071 33.816 125.071 32.544C125.071 32.064 124.927 31.608 124.327 31.32C123.775 31.056 122.527 30.912 121.063 30.768C119.119 30.6 117.943 30.36 117.223 29.832C116.575 29.352 116.239 28.488 116.239 27.624C116.239 25.392 118.279 23.952 121.447 23.952C124.999 23.952 126.487 25.512 126.487 28.176H124.711C124.687 26.4 123.631 25.584 121.519 25.584C119.479 25.584 118.159 26.328 118.159 27.504C118.159 27.984 118.231 28.56 118.927 28.848C119.503 29.088 120.679 29.232 122.239 29.4C124.087 29.592 124.999 29.76 125.815 30.216C126.607 30.672 126.991 31.584 126.991 32.472C126.991 34.8 125.071 36.192 121.471 36.192Z" fill="#DA6C96"/>
<rect x="1" y="1" width="171" height="54" rx="27" stroke="#DA6C96" stroke-width="2"/>
</svg>
