<svg width="180" height="129" viewBox="0 0 180 129" fill="none" xmlns="http://www.w3.org/2000/svg">
<path d="M54.9758 55.7278C50.4635 53.4292 50.5401 50.3707 51.8365 47.8259L53.5046 48.6756C52.4696 50.7072 52.7662 52.6629 55.7601 54.1881C58.9893 55.8331 60.5302 55.0289 61.2165 53.6816C61.6741 52.7835 61.5397 52.0955 60.9651 51.4257C60.3587 50.7128 58.8419 49.7246 57.7101 48.9326C56.3431 48.0207 54.9777 46.8942 54.4475 46.0316C53.8854 45.1257 53.7873 43.8907 54.4628 42.5648C55.7374 40.0627 58.9402 39.4857 62.2977 41.196C66.2326 43.2005 66.8677 45.8135 65.2118 49.064L63.5438 48.2143C64.7966 45.755 63.9726 43.9886 61.5561 42.7576C59.2679 41.5919 57.1197 41.7905 56.3354 43.3302C55.8778 44.2284 55.9476 44.9373 56.3939 45.5417C56.9039 46.2325 58.4626 47.3497 59.5944 48.1417C60.9078 49.0532 62.2635 50.0401 62.9434 50.979C63.6447 51.9288 63.721 53.2067 63.0673 54.4898C61.9779 56.6283 59.5736 58.07 54.9758 55.7278ZM67.8186 62.2163C65.0599 60.811 64.2093 58.3037 65.5166 55.7375L68.8393 49.215L70.5501 50.0866L67.3799 56.3096C66.4539 58.1274 67.0632 59.8922 69.0734 60.9162C71.5327 62.169 73.954 61.3285 75.3703 58.5485L77.7996 53.7796L79.5104 54.6511L74.1288 65.2154L72.418 64.3438C72.8203 63.6599 73.5385 62.3558 74.0832 61.2866L74.0618 61.2757C72.5996 63.0357 70.449 63.5563 67.8186 62.2163ZM81.6502 69.2624C78.5708 67.6936 77.6819 64.5743 79.3813 61.2382C81.0808 57.9021 84.1695 56.809 87.3345 58.4213C90.1573 59.8593 91.1035 62.4961 89.7309 65.1906L88.1484 64.3845C89.0203 62.62 88.4106 60.9088 86.5715 59.972C84.4544 58.8935 82.3122 59.7146 81.0921 62.1097C79.872 64.5049 80.4244 66.6986 82.4774 67.7444C84.402 68.7249 86.198 68.2661 87.1018 66.5448L88.6843 67.3509C87.3334 70.0027 84.58 70.7548 81.6502 69.2624ZM101.71 72.047L101.307 72.8382L93.0305 68.6223C91.9935 70.9222 92.6432 73.0308 94.7175 74.0875C96.4925 74.9917 98.169 74.7145 99.0268 73.4007L100.609 74.2069C99.3367 76.4406 96.7354 76.947 93.9554 75.5308C90.769 73.9076 89.7836 70.7661 91.4504 67.4941C93.1716 64.1153 96.3035 62.9903 99.4685 64.6026C102.484 66.1387 103.311 68.9034 101.71 72.047ZM100.356 70.7917L100.421 70.6634C101.369 68.8029 100.781 67.1026 98.7705 66.0786C96.8886 65.1199 95.0713 65.5678 93.7265 67.4146L100.356 70.7917ZM105.511 81.4177C101.962 79.6093 101.699 77.3748 102.734 75.3432L104.317 76.1494C103.598 77.5608 104.028 78.8305 106.231 79.9526C108.412 81.0638 109.798 80.9347 110.375 79.8013C110.593 79.3736 110.672 78.9019 110.268 78.3729C109.896 77.8871 108.849 77.1923 107.61 76.3995C105.954 75.3674 105.015 74.6197 104.613 73.8224C104.254 73.1006 104.346 72.1782 104.739 71.4083C105.752 69.4195 108.223 69.0624 111.046 70.5004C114.211 72.1127 114.829 74.1782 113.62 76.5519L112.037 75.7458C112.822 74.1524 112.251 72.9459 110.369 71.9873C108.552 71.0613 107.038 71.1251 106.504 72.1729C106.286 72.6006 106.089 73.1466 106.578 73.7191C106.983 74.1944 107.965 74.8565 109.279 75.7143C110.838 76.7242 111.575 77.2879 112.095 78.0646C112.594 78.8304 112.522 79.8174 112.119 80.6086C111.062 82.683 108.719 83.0518 105.511 81.4177ZM117.227 87.386C113.677 85.5776 113.415 83.343 114.45 81.3115L116.033 82.1176C115.314 83.529 115.744 84.7988 117.947 85.9209C120.128 87.0321 121.514 86.9029 122.091 85.7695C122.309 85.3418 122.388 84.8701 121.984 84.3412C121.612 83.8554 120.565 83.1606 119.326 82.3677C117.67 81.3356 116.731 80.588 116.329 79.7907C115.97 79.0688 116.062 78.1465 116.455 77.3766C117.468 75.3878 119.939 75.0307 122.762 76.4687C125.927 78.081 126.545 80.1464 125.335 82.5202L123.753 81.714C124.538 80.1206 123.967 78.9142 122.085 77.9555C120.268 77.0295 118.754 77.0933 118.22 78.1412C118.002 78.5689 117.805 79.1148 118.294 79.6874C118.698 80.1627 119.681 80.8248 120.995 81.6826C122.554 82.6925 123.291 83.2562 123.811 84.0329C124.309 84.7987 124.238 85.7856 123.834 86.5769C122.778 88.6512 120.435 89.02 117.227 87.386Z" fill="#DA6C96"/>
<rect x="25.8561" y="1.34496" width="171" height="54" rx="27" transform="rotate(26.9951 25.8561 1.34496)" stroke="#DA6C96" stroke-width="2"/>
</svg>
