<svg width="192" height="57" viewBox="0 0 192 57" fill="none" xmlns="http://www.w3.org/2000/svg">
<path d="M45.92 36.6113V20.8193H52.352C56.024 20.8193 57.728 22.4273 57.728 24.9473C57.728 26.7713 56.816 28.0913 54.944 28.3313V28.3553C57.128 28.5473 58.328 29.9873 58.328 32.0513C58.328 34.8353 56.792 36.6113 52.928 36.6113H45.92ZM47.936 27.7553H52.616C54.848 27.7553 55.856 26.7713 55.856 25.2113C55.856 23.6273 54.824 22.5953 52.328 22.5953H47.936V27.7553ZM47.936 34.8353H52.856C55.568 34.8353 56.36 33.6833 56.36 31.8593C56.36 30.2753 55.064 29.2433 52.76 29.2433H47.936V34.8353ZM71.9471 30.1793V31.0673H62.6591C62.7791 33.5873 64.3151 35.1713 66.6431 35.1713C68.6351 35.1713 70.0031 34.1633 70.1711 32.6033H71.9471C71.8271 35.1713 69.7391 36.8033 66.6191 36.8033C63.0431 36.8033 60.7391 34.4513 60.7391 30.7793C60.7391 26.9873 63.0191 24.5633 66.5711 24.5633C69.9551 24.5633 71.9471 26.6513 71.9471 30.1793ZM70.1711 29.6753V29.5313C70.1711 27.4433 68.8751 26.1953 66.6191 26.1953C64.5071 26.1953 63.0911 27.4193 62.7311 29.6753H70.1711ZM78.7483 36.8033C76.0603 36.8033 74.3563 35.4353 74.3563 33.2033C74.3563 31.5233 75.5323 30.0833 78.7003 30.0833H83.5243V29.2193C83.5243 27.1793 82.3243 26.1953 79.9003 26.1953C77.7163 26.1953 76.5163 27.0113 76.5163 28.6193C76.5163 28.6913 76.5163 28.8593 76.5403 29.0513H74.7643C74.7402 28.8833 74.7163 28.5473 74.7163 28.3313C74.7163 25.9793 76.7323 24.5633 79.9483 24.5633C83.4283 24.5633 85.4443 26.2913 85.4443 29.3873V36.6113H83.5243C83.5483 36.0593 83.5963 34.9553 83.6203 33.8033H83.5963C83.1883 35.6273 81.7003 36.8033 78.7483 36.8033ZM79.1323 35.1713C81.8203 35.1713 83.5243 33.8033 83.5243 31.6433V31.4753H78.8683C76.9243 31.4753 76.1562 32.0513 76.1562 33.2033C76.1562 34.4033 77.2603 35.1713 79.1323 35.1713ZM93.5598 36.8033C90.4638 36.8033 88.5678 34.9553 88.5678 32.0753V24.7553H90.4878V31.7393C90.4878 33.7793 91.8318 35.0753 94.0878 35.0753C96.8478 35.0753 98.6238 33.2273 98.6238 30.1073V24.7553H100.544V36.6113H98.6238C98.6718 35.8193 98.7198 34.3313 98.7198 33.1313H98.6958C98.1918 35.3633 96.5118 36.8033 93.5598 36.8033ZM108.603 36.7073C105.723 36.7073 104.499 34.8833 104.499 32.2673V26.4353H102.531V24.7553H104.115C104.499 24.7553 104.643 24.5633 104.691 23.9393L104.787 22.0673H106.419V24.7553H110.715V26.4353H106.419V32.1473C106.419 33.9473 106.995 35.0273 108.771 35.0273C109.587 35.0273 110.355 34.8833 110.619 34.7873V36.4193C110.259 36.5633 109.563 36.7073 108.603 36.7073ZM113.369 23.2433V20.8193H115.433V23.2433H113.369ZM113.441 36.6113V24.7553H115.361V36.6113H113.441ZM119.476 36.6113V26.4353H117.484V24.7553H119.476V23.5793C119.476 20.9873 121.06 19.4993 123.532 19.4993C124.444 19.4993 125.188 19.6673 125.62 19.8113V21.5153C125.188 21.3713 124.588 21.2273 123.772 21.2273C122.26 21.2273 121.396 22.0673 121.396 23.5793V24.7553H125.812V26.4353H121.396V36.6113H119.476ZM133.122 36.8033C130.026 36.8033 128.13 34.9553 128.13 32.0753V24.7553H130.05V31.7393C130.05 33.7793 131.394 35.0753 133.65 35.0753C136.41 35.0753 138.186 33.2273 138.186 30.1073V24.7553H140.106V36.6113H138.186C138.234 35.8193 138.282 34.3313 138.282 33.1313H138.258C137.754 35.3633 136.074 36.8033 133.122 36.8033ZM143.581 36.6113V19.9793H145.501V36.6113H143.581Z" fill="#82BCC5"/>
<rect x="1" y="1.61133" width="190" height="54" rx="27" stroke="#82BCC5" stroke-width="2"/>
</svg>
